HIERARCHY
ROOT Hips
{
	OFFSET 0.000000 0.000000 0.000000
	CHANNELS 6 Xposition Yposition Zposition Zrotation Yrotation Xrotation 
	JOINT LowerBack
	{
		OFFSET 0.000000 0.000000 0.000000
		CHANNELS 3 Zrotation Yrotation Xrotation
		JOINT Spine
		{
			OFFSET 0.028270 2.035590 -0.193380
			CHANNELS 3 Zrotation Yrotation Xrotation
			JOINT Spine1
			{
				OFFSET 0.056720 2.048850 -0.042750
				CHANNELS 3 Zrotation Yrotation Xrotation
				JOINT Neck
				{
					OFFSET 0.000000 0.000000 0.000000
					CHANNELS 3 Zrotation Yrotation Xrotation
					JOINT Neck1
					{
						OFFSET -0.054170 1.746240 0.172020
						CHANNELS 3 Zrotation Yrotation Xrotation
						JOINT Head
						{
							OFFSET 0.104070 1.761360 -0.123970
							CHANNELS 3 Zrotation Yrotation Xrotation
							End Site
							{
								OFFSET 0.000000 0.000000 0.000000
							}
						}
					}
				}
				JOINT LeftShoulder
				{
					OFFSET 0.000000 0.000000 0.000000
					CHANNELS 3 Zrotation Yrotation Xrotation
					JOINT LeftArm
					{
						OFFSET 3.362410 1.200890 -0.311210
						CHANNELS 3 Zrotation Yrotation Xrotation
						JOINT LeftForeArm
						{
							OFFSET 4.983000 -0.000000 -0.000000
							CHANNELS 3 Zrotation Yrotation Xrotation
							JOINT LeftHand
							{
								OFFSET 3.483560 -0.000000 -0.000000
								CHANNELS 3 Zrotation Yrotation Xrotation
								JOINT LeftFingerBase
								{
									OFFSET 0.000000 0.000000 0.000000
									CHANNELS 3 Zrotation Yrotation Xrotation
									JOINT LeftHandIndex1
									{
										OFFSET 0.715260 -0.000000 -0.000000
										CHANNELS 3 Zrotation Yrotation Xrotation
										End Site
										{
											OFFSET 0.000000 0.000000 0.000000
										}
									}
								}
								JOINT LThumb
								{
									OFFSET 0.000000 0.000000 0.000000
									CHANNELS 3 Zrotation Yrotation Xrotation
									End Site
									{
										OFFSET 0.000000 0.000000 0.000000
									}
								}
							}
						}
					}
				}
				JOINT RightShoulder
				{
					OFFSET 0.000000 0.000000 0.000000
					CHANNELS 3 Zrotation Yrotation Xrotation
					JOINT RightArm
					{
						OFFSET -3.136600 1.374050 -0.404650
						CHANNELS 3 Zrotation Yrotation Xrotation
						JOINT RightForeArm
						{
							OFFSET -5.241900 -0.000000 -0.000000
							CHANNELS 3 Zrotation Yrotation Xrotation
							JOINT RightHand
							{
								OFFSET -3.444170 -0.000000 -0.000000
								CHANNELS 3 Zrotation Yrotation Xrotation
								JOINT RightFingerBase
								{
									OFFSET 0.000000 0.000000 0.000000
									CHANNELS 3 Zrotation Yrotation Xrotation
									JOINT RightHandIndex1
									{
										OFFSET -0.622530 -0.000000 -0.000000
										CHANNELS 3 Zrotation Yrotation Xrotation
										End Site
										{
											OFFSET 0.000000 0.000000 0.000000
										}
									}
								}
								JOINT RThumb
								{
									OFFSET 0.000000 0.000000 0.000000
									CHANNELS 3 Zrotation Yrotation Xrotation
									End Site
									{
										OFFSET 0.000000 0.000000 0.000000
									}
								}
							}
						}
					}
				}
			}
		}
	}
}
}
MOTION
Frames: 18
Frame Time: 0.008333
2.758065 15.263494 1.880704 135.064063 -82.260242 -67.140831 -1.083675 -1.934560 -1.077986 -0.577574 -1.942006 -3.204023 -2.941809 -2.004626 -0.683591 3.292797 -6.180424 -6.606461 -1.069644 -0.046735 -0.549050 0.000000 0.000000 0.000000 6.008766 5.563005 3.534547 -53.514338 -4.907142 3.219536 0.142702 -89.404714 -0.052934 4.317407 10.177320 0.392610 -0.200391 0.260757 0.000000 0.000000 0.000000 0.000000 0.000000 0.000000 0.000000 -1.088366 -1.158619 0.853269 58.436802 22.888403 -1.052177 179.958504 88.850574 179.930577 -9.590396 7.354981 -0.679974 0.196665 -0.579395 0.000000 0.000000 0.000000 0.000000 0.000000 0.000000 0.000000 
2.669214 15.164946 1.876747 136.584881 -82.375120 -68.311689 -1.095556 -1.901389 -1.035309 -0.594157 -1.907846 -3.189675 -2.963056 -1.970114 -0.704661 3.318396 -6.180989 -6.751229 -1.116364 -0.047302 -0.602779 0.000000 0.000000 0.000000 5.739466 5.900694 3.527370 -53.659931 -4.795671 3.282085 0.126143 -89.292903 -0.058078 5.092158 9.817974 0.443931 -0.213807 0.268229 0.000000 0.000000 0.000000 0.000000 0.000000 0.000000 0.000000 -0.759417 -1.150708 0.912722 58.648506 22.791667 -0.966344 179.977776 89.624630 179.932454 -9.402278 7.302821 -0.661785 0.192154 -0.574438 0.000000 0.000000 0.000000 0.000000 0.000000 0.000000 0.000000 
2.579041 15.059570 1.875004 138.074585 -82.525857 -69.491403 -1.059962 -1.866883 -0.982166 -0.600254 -1.873830 -3.172716 -2.994400 -1.935713 -0.725297 3.366586 -6.176797 -6.909681 -1.169182 -0.048167 -0.660172 0.000000 0.000000 0.000000 5.440498 6.279169 3.522977 -53.886513 -4.687724 3.377113 0.102842 -89.060184 -0.062734 5.808288 9.481692 0.486749 -0.225684 0.274790 0.000000 0.000000 0.000000 0.000000 0.000000 0.000000 0.000000 -0.384324 -1.140163 0.970941 58.928675 22.570238 -0.857994 -0.000048 89.518466 -0.065835 -9.235574 7.240694 -0.644296 0.187519 -0.568752 0.000000 0.000000 0.000000 0.000000 0.000000 0.000000 0.000000 
2.487277 14.947852 1.875491 139.565672 -82.705513 -70.715142 -0.981647 -1.831420 -0.913855 -0.597217 -1.840180 -3.150998 -3.036040 -1.901615 -0.742747 3.436591 -6.174667 -7.083800 -1.228642 -0.049338 -0.722013 0.000000 0.000000 0.000000 5.098022 6.707292 3.522906 -54.179627 -4.594447 3.504734 0.072868 -88.697994 -0.066719 6.441538 9.184345 0.520860 -0.235584 0.280019 0.000000 0.000000 0.000000 0.000000 0.000000 0.000000 0.000000 0.042825 -1.135344 1.027901 59.266286 22.238687 -0.725570 0.024810 88.566459 -0.064303 -9.095176 7.177244 -0.628609 0.182868 -0.562397 0.000000 0.000000 0.000000 0.000000 0.000000 0.000000 0.000000 
2.393837 14.830394 1.878166 141.087307 -82.907631 -72.014600 -0.865809 -1.796151 -0.829841 -0.586408 -1.807910 -3.124135 -3.088172 -1.868893 -0.755740 3.527709 -6.174184 -7.273562 -1.295376 -0.050874 -0.788308 0.000000 0.000000 0.000000 4.701043 7.185832 3.528303 -54.523598 -4.511953 3.659401 0.036626 -88.205981 -0.069922 6.977655 8.936819 0.547465 -0.243269 0.283612 0.000000 0.000000 0.000000 0.000000 0.000000 0.000000 0.000000 0.526313 -1.137085 1.084067 59.648958 21.805189 -0.571513 0.051986 87.507555 -0.062925 -8.982319 7.127030 -0.616023 0.178256 -0.555520 0.000000 0.000000 0.000000 0.000000 0.000000 0.000000 0.000000 
2.298437 14.707670 1.883297 142.726623 -83.136690 -73.471900 -0.707629 -1.758035 -0.735101 -0.566636 -1.774178 -3.093848 -3.151050 -1.834878 -0.764473 3.637230 -6.174650 -7.477378 -1.369913 -0.052869 -0.858487 0.000000 0.000000 0.000000 4.238112 7.703796 3.539086 -54.906189 -4.421590 3.830907 -0.005316 -87.589761 -0.072268 7.409970 8.743918 0.567564 -0.248611 0.285374 0.000000 0.000000 0.000000 0.000000 0.000000 0.000000 0.000000 1.067292 -1.143444 1.141524 60.059654 21.273286 -0.402506 0.081072 86.329525 -0.061630 -8.893444 7.107162 -0.607537 0.173737 -0.548312 0.000000 0.000000 0.000000 0.000000 0.000000 0.000000 0.000000 
2.201079 14.580621 1.890360 144.473302 -83.375479 -75.077339 -0.523935 -1.721657 -0.625249 -0.542298 -1.743044 -3.058237 -3.224177 -1.803635 -0.766999 3.769128 -6.179648 -7.697168 -1.452646 -0.055318 -0.933391 0.000000 0.000000 0.000000 3.706403 8.266279 3.555361 -55.309136 -4.328641 4.014540 -0.052971 -86.847250 -0.073765 7.740429 8.605829 0.582655 -0.251677 0.285290 0.000000 0.000000 0.000000 0.000000 0.000000 0.000000 0.000000 1.676374 -1.161122 1.201228 60.484792 20.665298 -0.222156 0.112015 85.011314 -0.060337 -8.823289 7.137094 -0.604352 0.169270 -0.540923 0.000000 0.000000 0.000000 0.000000 0.000000 0.000000 0.000000 
2.101729 14.450064 1.899259 146.374624 -83.621874 -76.873296 -0.317577 -1.686594 -0.503436 -0.514077 -1.714004 -3.018326 -3.307082 -1.774810 -0.763300 3.923951 -6.191195 -7.932551 -1.543447 -0.058240 -1.012911 0.000000 0.000000 0.000000 3.103707 8.864542 3.575894 -55.721933 -4.220661 4.200897 -0.106044 -85.982052 -0.074490 7.977501 8.516839 0.593743 -0.252601 0.283441 0.000000 0.000000 0.000000 0.000000 0.000000 0.000000 0.000000 2.356029 -1.192195 1.265204 60.909824 19.993179 -0.039453 0.144800 83.534395 -0.058964 -8.765352 7.232394 -0.607065 0.164856 -0.533483 0.000000 0.000000 0.000000 0.000000 0.000000 0.000000 0.000000 
2.000488 14.317006 1.909490 148.413271 -83.864645 -78.837540 -0.101900 -1.656131 -0.371147 -0.485331 -1.689933 -2.974260 -3.398839 -1.751363 -0.752531 4.105618 -6.212268 -8.184493 -1.641774 -0.061588 -1.097438 0.000000 0.000000 0.000000 2.435458 9.496506 3.599433 -56.133936 -4.093960 4.383145 -0.164556 -84.993806 -0.074418 8.134657 8.468139 0.601625 -0.251612 0.280017 -0.000000 0.000000 0.000000 0.000000 0.000000 0.000000 0.000000 3.111038 -1.241588 1.334519 61.325741 19.274716 0.136035 0.179589 81.878145 -0.057443 -8.713175 7.404114 -0.615979 0.160456 -0.526042 0.000000 0.000000 0.000000 0.000000 0.000000 0.000000 0.000000 
1.897359 14.182332 1.921180 150.698449 -84.112171 -81.071095 0.129588 -1.625207 -0.233802 -0.454247 -1.665949 -2.928244 -3.498468 -1.728612 -0.736297 4.312163 -6.245192 -8.451458 -1.746328 -0.065318 -1.186433 0.000000 0.000000 0.000000 1.705657 10.146641 3.623343 -56.546089 -3.932543 4.550922 -0.228037 -83.882211 -0.073751 8.229292 8.445094 0.606903 -0.248917 0.275278 -0.000000 0.000000 0.000000 0.000000 0.000000 0.000000 0.000000 3.934282 -1.309077 1.411214 61.722539 18.512515 0.286814 0.216509 80.029701 -0.055775 -8.667539 7.654443 -0.631390 0.156189 -0.518611 0.000000 0.000000 0.000000 0.000000 0.000000 0.000000 0.000000 
1.792606 14.047181 1.933172 153.074459 -84.341192 -83.413201 0.349647 -1.602984 -0.092871 -0.427632 -1.650396 -2.879731 -3.604380 -1.714905 -0.712231 4.551980 -6.294092 -8.736110 -1.855823 -0.069294 -1.280826 0.000000 0.000000 0.000000 0.931930 10.822859 3.646629 -56.950767 -3.745850 4.704296 -0.296324 -82.640315 -0.072580 8.278800 8.437484 0.609976 -0.244823 0.269497 -0.000000 0.000000 0.000000 0.000000 0.000000 0.000000 0.000000 4.832096 -1.403612 1.494476 62.101190 17.730719 0.403519 0.255647 77.969001 -0.053953 -8.626397 7.977053 -0.652502 0.152013 -0.511012 0.000000 0.000000 0.000000 0.000000 0.000000 0.000000 0.000000 
1.686245 13.912446 1.945728 155.677020 -84.565861 -85.991807 0.570102 -1.581378 0.045211 -0.402204 -1.635557 -2.831492 -3.715044 -1.702723 -0.682811 4.820257 -6.359625 -9.036063 -1.967952 -0.073410 -1.379733 0.000000 0.000000 0.000000 0.123117 11.508113 3.666659 -57.357164 -3.520385 4.835399 -0.368637 -81.260060 -0.070995 8.301800 8.428597 0.611047 -0.239507 0.262962 -0.000000 0.000000 0.000000 0.000000 0.000000 0.000000 0.000000 5.787828 -1.521390 1.585618 62.457622 16.920195 0.463132 0.296589 75.695472 -0.052088 -8.602289 8.355959 -0.678914 0.148190 -0.503133 0.000000 0.000000 0.000000 0.000000 0.000000 0.000000 0.000000 
1.578445 13.779076 1.957891 158.332586 -84.771320 -88.626488 0.770422 -1.567143 0.175623 -0.382996 -1.627663 -2.783986 -3.828762 -1.698308 -0.645868 5.122656 -6.445957 -9.353282 -2.080902 -0.077505 -1.483740 0.000000 0.000000 0.000000 -0.700652 12.208661 3.682735 -57.764813 -3.265863 4.948257 -0.444142 -79.729751 -0.069103 8.313445 8.409358 0.610514 -0.233218 0.255892 -0.000000 0.000000 0.000000 0.000000 0.000000 0.000000 0.000000 6.801050 -1.669860 1.683270 62.796464 16.096944 0.455271 0.338541 73.201282 -0.050247 -8.601954 8.768223 -0.709726 0.144789 -0.494710 0.000000 0.000000 0.000000 0.000000 0.000000 0.000000 0.000000 
1.469303 13.647961 1.969405 161.015615 -84.961059 -91.287832 0.950267 -1.558001 0.292380 -0.369775 -1.624536 -2.739018 -3.943664 -1.699573 -0.601675 5.456862 -6.554044 -9.687082 -2.192418 -0.081442 -1.592465 0.000000 0.000000 0.000000 -1.524244 12.918714 3.693969 -58.181437 -2.981562 5.043368 -0.521500 -78.035444 -0.066974 8.326584 8.369248 0.608478 -0.226105 0.248464 -0.000000 0.000000 0.000000 0.000000 0.000000 0.000000 0.000000 7.858124 -1.848180 1.787146 63.118789 15.256714 0.364830 0.380089 70.493456 -0.048553 -8.640469 9.186728 -0.744337 0.142036 -0.485559 0.000000 0.000000 0.000000 0.000000 0.000000 0.000000 0.000000 
1.358790 13.519857 1.979812 163.591509 -85.133404 -93.836038 1.102383 -1.555676 0.389103 -0.364131 -1.627873 -2.697764 -4.058144 -1.708238 -0.548599 5.823003 -6.688489 -10.038273 -2.300542 -0.085071 -1.706020 0.000000 0.000000 0.000000 -2.331679 13.639357 3.700352 -58.610594 -2.674203 5.126816 -0.599129 -76.162337 -0.064664 8.350269 8.301573 0.605140 -0.218320 0.240784 -0.000000 0.000000 0.000000 0.000000 0.000000 0.000000 0.000000 8.950719 -2.061355 1.896326 63.426563 14.404059 0.185823 0.419550 67.580161 -0.047066 -8.727703 9.584848 -0.781953 0.140066 -0.475508 0.000000 0.000000 0.000000 0.000000 0.000000 0.000000 0.000000 
1.246787 13.395478 1.989305 166.122695 -85.298682 -96.331556 1.236521 -1.553882 0.459816 -0.363171 -1.631880 -2.662800 -4.170260 -1.718638 -0.488856 6.212047 -6.839030 -10.402984 -2.403695 -0.088352 -1.823041 0.000000 0.000000 0.000000 -3.113539 14.358332 3.702803 -59.062200 -2.337801 5.196959 -0.674943 -74.092320 -0.062177 8.387493 8.198199 0.599899 -0.209866 0.232917 -0.000000 0.000000 0.000000 0.000000 0.000000 0.000000 0.000000 10.057418 -2.294653 2.011047 63.717300 13.510797 -0.094543 0.454774 64.490735 -0.045890 -8.879239 9.939603 -0.822668 0.139092 -0.464542 0.000000 0.000000 0.000000 0.000000 0.000000 0.000000 0.000000 
1.133318 13.275524 1.997218 168.292334 -85.450084 -98.457905 1.338030 -1.560081 0.498760 -0.370353 -1.643840 -2.633879 -4.278930 -1.737941 -0.416985 6.626880 -7.021827 -10.785622 -2.500219 -0.091092 -1.944687 0.000000 0.000000 0.000000 -3.855496 15.086780 3.702498 -59.531538 -1.988028 5.268092 -0.747099 -71.813655 -0.059553 8.440782 8.059488 0.593056 -0.200923 0.224823 -0.000000 0.000000 0.000000 0.000000 0.000000 0.000000 0.000000 11.176962 -2.567821 2.130028 63.991390 12.603360 -0.458142 0.485038 61.230808 -0.044902 -9.081635 10.236699 -0.864384 0.138972 -0.452550 0.000000 0.000000 0.000000 0.000000 0.000000 0.000000 0.000000 
1.018032 13.160558 2.003904 170.158290 -85.598031 -100.271793 1.419054 -1.568471 0.500995 -0.382172 -1.658544 -2.613300 -4.382644 -1.761018 -0.335076 7.056196 -7.223287 -11.181411 -2.589417 -0.093322 -2.069377 0.000000 0.000000 0.000000 -4.553392 15.811804 3.701742 -60.024109 -1.616714 5.336978 -0.813272 -69.310763 -0.056749 8.503109 7.880708 0.583710 -0.191417 0.216471 -0.000000 0.000000 0.000000 0.000000 0.000000 0.000000 0.000000 12.288221 -2.862870 2.253799 64.242955 11.647742 -0.905678 0.509666 57.838576 -0.044035 -9.329230 10.471504 -0.906300 0.139669 -0.439661 0.000000 0.000000 0.000000 0.000000 0.000000 0.000000 0.000000 
